<?xml version="1.0" encoding="utf-8"?>
<svg version="1.0" width="350.000000pt" height="350.000000pt" viewBox="0 0 350.000000 350.000000" preserveAspectRatio="xMidYMid meet" xmlns="http://www.w3.org/2000/svg">
  <g transform="translate(0.000000,350.000000) scale(0.100000,-0.100000)" fill="#000000" stroke="none">
    <path style="stroke: rgb(0, 0, 0); fill: rgb(214, 195, 172);" d="M 85.36 3303.59 L 174.63 201.72 L 899.88 112.46 L 1636.3 369.09 L 1926.4 369.09 L 2227.66 179.41 L 3254.18 157.09 L 3354.6 1362.13 L 3321.12 3270.12 L 3075.65 3359.38 L 2450.82 3292.43 L 1926.4 3125.07 L 1669.77 3013.49 L 1390.83 3125.07 L 777.15 3281.28 L 85.36 3303.59 Z"/>
    <path d="M 2417.016 3942.477 C 2219.016 4056.477 1135.04 3163.927 1128.773 3083.548 C 1103.304 2756.868 912.928 2830.049 699.138 2872.52 C 582.567 2895.678 -493.358 2460.572 -520.358 2347.572 C -540.358 2264.572 999.162 -429.797 1087.162 -451.797 C 1281.162 -501.797 2204.855 -49.087 2252.166 189.818 C 2299.477 428.723 2573.616 653.53 2793 482 C 2951.783 357.852 3873.297 1021.861 3917.297 1061.861 C 4025.297 1161.861 2479.016 3906.477 2417.016 3942.477 Z M 1226.404 2977.661 C 1236.37 3004.131 1805.88 3685.163 2298.4 3774.555 C 2461.447 3804.148 3755.34 1220.642 3733.34 1151.642 C 3685.34 1004.642 2915.329 734.061 2776.145 726.826 C 2331.278 703.702 2343.297 680.769 2080.872 303.729 C 2020.518 217.015 1338.7 -324.854 1187.414 -238.963 C 1024.414 -145.963 -346.585 2159.754 -254.341 2325.956 C -173.216 2472.123 670.722 2768.18 795.439 2711.34 C 963.647 2634.679 1156.96 2793.215 1226.404 2977.661 Z" transform="matrix(0.874293, -0.485398, 0.485398, 0.874293, -631.318243, 1063.843562)" style="fill: rgb(120, 99, 76);"/>
    <path d="M 972.835 2696.077 C 869.703 2702.565 2162.043 1420.771 2191.481 569.611 C 2195.346 457.864 2291.556 739.36 2482.596 740.397 C 2489.781 740.436 1222.438 2812.603 1182.322 2853.311 C 1163.349 2872.564 1025.5 2692.764 972.835 2696.077 Z" transform="matrix(0.874293, -0.485398, 0.485398, 0.874293, -639.712151, 1046.458976)" style="fill: rgb(120, 99, 76);"/>
    <path d="M 1862.6 2195.679 C 1661.85 1667.229 2116.32 1059.659 2709.88 993.549 C 2863.67 976.419 3388.381 978.749 3306.541 1314.599 C 3094.41 2185.159 2846.24 981.209 2535.89 1495.959 C 2389.21 1739.249 2948.74 1503.549 3100.47 1918.559 C 3182.841 2143.869 2934.38 2492.469 2676.03 2563.319 C 2387.17 2642.55 1976.96 2496.709 1862.6 2195.679 Z" style="fill: rgb(120, 99, 76);" transform="matrix(0.874292, -0.485401, 0.485401, 0.874292, -544.670506, 1469.505862)"/>
    <path d="M 155.27 1953.119 C -36.44 1399.289 602.56 838.9 1169.41 769.61 C 1316.28 751.67 1752.63 1096.229 1674.47 1448.199 C 1471.89 2360.539 1179.06 743.55 882.67 1283.009 C 742.59 1537.989 1067.19 1401.419 1212.09 1836.349 C 1290.75 2072.479 1030.04 2426.969 851.16 2483.009 C 578.34 2568.469 264.49 2268.589 155.27 1953.119 Z" style="fill: rgb(120, 99, 76);" transform="matrix(-0.767917, 0.640549, -0.640549, -0.767917, 2641.183924, 2309.761844)"/>
  </g>
</svg>